# xmcd
# 
# Track frame offsets:
#     150
#     11341
#     26306
#     47156
#     65582
#     82795
#     98915
#     109953
#     124298
#     140487
#     155083
#     166897
# 
# Disc length: 2423
# 
# Revision: 4
# Processed by: cddbd v1.5.2PL0 Copyright (c) Steve Scherf et al.
# Submitted via: fre:ac v1.0.31
# 
DISCID=9709750c
DTITLE=Christmas - Home For The Holidays Country Style Disc 2
DYEAR=2002
DGENRE=Christmas
TTITLE0=Darryl Worley - Just Around the Corner
TTITLE1=The Mavericks - Santa Clause is Back in Town
TTITLE2=Gary Allan - (It Must Have Been Ol') Sant Clause
TTITLE3=Kathy Mattea - There's a New Kid in Town
TTITLE4=Vince Gill - Blue Christmas
TTITLE5=Alecia Elliott - What Child Is This?
TTITLE6=Ray Stevens - Greatest Christmas Ever Wuz
TTITLE7=Mark Chesnutt - Light of the World
TTITLE8=Rebecca Lynn Howard - The First Noel
TTITLE9=Tracy Byrd - Chrismas Like Mama Used to Make
TTITLE10=Jerry Lee Lewis - I Can't Have Merry Christmas, Mary (Without You)
TTITLE11=Toby Keith - Santa's Gonna Take It All Back
EXTD=YEAR: 2002
EXTT0=
EXTT1=
EXTT2=
EXTT3=
EXTT4=
EXTT5=
EXTT6=
EXTT7=
EXTT8=
EXTT9=
EXTT10=
EXTT11=
PLAYORDER=
